<svg width="15" height="16" viewBox="0 0 15 16" fill="none" xmlns="http://www.w3.org/2000/svg">
<path fill-rule="evenodd" clip-rule="evenodd" d="M5.5 3.5C4.67157 3.5 4 4.17157 4 5C4 5.82843 4.67157 6.5 5.5 6.5C6.32843 6.5 7 5.82843 7 5C7 4.17157 6.32843 3.5 5.5 3.5ZM3 5.5C3.01671 5.5 3.03323 5.49918 3.04952 5.49758C3.28022 6.6399 4.28967 7.5 5.5 7.5C6.71033 7.5 7.71978 6.6399 7.95048 5.49758C7.96677 5.49918 7.98329 5.5 8 5.5H13.5C13.7761 5.5 14 5.27614 14 5C14 4.72386 13.7761 4.5 13.5 4.5H8C7.98329 4.5 7.96677 4.50082 7.95048 4.50242C7.71978 3.36009 6.71033 2.5 5.5 2.5C4.28967 2.5 3.28022 3.36009 3.04952 4.50242C3.03323 4.50082 3.01671 4.5 3 4.5H1.5C1.22386 4.5 1 4.72386 1 5C1 5.27614 1.22386 5.5 1.5 5.5H3ZM11.9505 11.4976C11.7198 12.6399 10.7103 13.5 9.5 13.5C8.28967 13.5 7.28022 12.6399 7.04952 11.4976C7.03323 11.4992 7.01671 11.5 7 11.5H1.5C1.22386 11.5 1 11.2761 1 11C1 10.7239 1.22386 10.5 1.5 10.5H7C7.01671 10.5 7.03323 10.5008 7.04952 10.5024C7.28022 9.3601 8.28967 8.5 9.5 8.5C10.7103 8.5 11.7198 9.3601 11.9505 10.5024C11.9668 10.5008 11.9833 10.5 12 10.5H13.5C13.7761 10.5 14 10.7239 14 11C14 11.2761 13.7761 11.5 13.5 11.5H12C11.9833 11.5 11.9668 11.4992 11.9505 11.4976ZM8 11C8 10.1716 8.67157 9.5 9.5 9.5C10.3284 9.5 11 10.1716 11 11C11 11.8284 10.3284 12.5 9.5 12.5C8.67157 12.5 8 11.8284 8 11Z" fill="#344054"/>
</svg>
